<?xml version="1.0" encoding="UTF-8" standalone="no"?>
<!-- Created with Inkscape (http://www.inkscape.org/) -->

<svg
   width="79mm"
   height="241mm"
   viewBox="0 0 79 241"
   version="1.1"
   id="svg1"
   inkscape:version="1.3.1 (91b66b0783, 2023-11-16)"
   sodipodi:docname="plunger.svg"
   xmlns:inkscape="http://www.inkscape.org/namespaces/inkscape"
   xmlns:sodipodi="http://sodipodi.sourceforge.net/DTD/sodipodi-0.dtd"
   xmlns="http://www.w3.org/2000/svg"
   xmlns:svg="http://www.w3.org/2000/svg">
  <sodipodi:namedview
     id="namedview1"
     pagecolor="#ffffff"
     bordercolor="#999999"
     borderopacity="1"
     inkscape:showpageshadow="2"
     inkscape:pageopacity="0"
     inkscape:pagecheckerboard="0"
     inkscape:deskcolor="#d1d1d1"
     inkscape:document-units="mm"
     inkscape:zoom="0.69219276"
     inkscape:cx="325.05396"
     inkscape:cy="561.25984"
     inkscape:window-width="1920"
     inkscape:window-height="991"
     inkscape:window-x="-9"
     inkscape:window-y="-9"
     inkscape:window-maximized="1"
     inkscape:current-layer="layer1" />
  <defs
     id="defs1" />
  <g
     inkscape:label="Layer 1"
     inkscape:groupmode="layer"
     id="layer1">
    <path
       d="M 39.042182,1.0310608 A 8.7916341,106.4535 0 0 0 30.250515,107.4856 8.7916341,106.4535 0 0 0 39.042182,213.93853 8.7916341,106.4535 0 0 0 47.833854,107.4856 8.7916341,106.4535 0 0 0 39.042182,1.0310608 Z"
       style="fill:#ff9955;stroke-width:0.226651"
       id="path38" />
    <path
       d="M 39.425117,186.94805 A 38.415054,26.565655 0 0 0 1.0098957,213.51398 38.415054,26.565655 0 0 0 39.425117,240.07949 38.415054,26.565655 0 0 0 77.840326,213.51398 38.415054,26.565655 0 0 0 39.425117,186.94805 Z"
       style="fill:#ff0000;stroke-width:0.236676"
       id="path2" />
    <path
       d="M 38.851759,174.13856 A 33.254845,28.476847 0 0 0 5.5967687,202.6157 33.254845,28.476847 0 0 0 38.851759,231.09239 33.254845,28.476847 0 0 0 72.106739,202.6157 33.254845,28.476847 0 0 0 38.851759,174.13856 Z"
       style="fill:#ff0000;stroke-width:0.227991"
       id="path33" />
    <path
       d="M 39.425117,196.34156 A 32.681489,19.303124 0 0 0 6.7434861,215.64488 32.681489,19.303124 0 0 0 39.425117,234.9479 32.681489,19.303124 0 0 0 72.106739,215.64488 32.681489,19.303124 0 0 0 39.425117,196.34156 Z"
       style="fill:#d40000;stroke-width:0.186084"
       id="path32" />
    <path
       id="path34"
       style="fill:#ff0000;stroke-width:0.0974859"
       d="m 32.565448,166.51901 a 11.467298,15.098501 0 0 0 -5.181079,12.58476 11.467298,15.098501 0 0 0 11.467517,15.09831 11.467298,15.098501 0 0 0 11.466995,-15.09831 11.467298,15.098501 0 0 0 -5.016747,-12.4411 c -0.51157,0.0121 -1.02315,0.0286 -1.53324,0.0713 -0.52864,0.0512 -1.057674,0.11719 -1.564241,0.28525 -0.808643,0.24678 -1.643437,0.41038 -2.492354,0.41238 -0.725878,0.0219 -1.451805,0.0528 -2.175578,0.1142 -0.973182,0.0762 -1.953288,0.14524 -2.910934,-0.10335 -0.753712,-0.19282 -1.467701,-0.46671 -2.060339,-0.92346 z" />
    <path
       d="M 39.233998,1.0310608 A 8.7916341,13.378425 0 0 0 30.442328,14.409617 8.7916341,13.378425 0 0 0 39.233998,27.78797 8.7916341,13.378425 0 0 0 48.025664,14.409617 8.7916341,13.378425 0 0 0 39.233998,1.0310608 Z"
       style="fill:#ff9955;stroke-width:0.080349"
       id="path37" />
    <path
       d="M 39.233998,6.3227275 A 8.7916341,13.378425 0 0 0 30.442328,19.701284 8.7916341,13.378425 0 0 0 39.233998,33.079637 8.7916341,13.378425 0 0 0 48.025664,19.701284 8.7916341,13.378425 0 0 0 39.233998,6.3227275 Z"
       style="fill:#ff9955;stroke-width:0.080349"
       id="path39" />
    <path
       d="m 39.233998,11.614393 a 8.7916341,13.378425 0 0 0 -8.79167,13.378558 8.7916341,13.378425 0 0 0 8.79167,13.378353 8.7916341,13.378425 0 0 0 8.791666,-13.378353 8.7916341,13.378425 0 0 0 -8.791666,-13.378558 z"
       style="fill:#ff9955;stroke-width:0.080349"
       id="path40" />
    <path
       d="m 39.233998,16.90606 a 8.7916341,13.378425 0 0 0 -8.79167,13.378558 8.7916341,13.378425 0 0 0 8.79167,13.378353 8.7916341,13.378425 0 0 0 8.791666,-13.378353 8.7916341,13.378425 0 0 0 -8.791666,-13.378558 z"
       style="fill:#ff9955;stroke-width:0.080349"
       id="path41" />
    <path
       d="m 39.233998,22.197727 a 8.7916341,13.378425 0 0 0 -8.79167,13.378558 8.7916341,13.378425 0 0 0 8.79167,13.378353 8.7916341,13.378425 0 0 0 8.791666,-13.378353 8.7916341,13.378425 0 0 0 -8.791666,-13.378558 z"
       style="fill:#ff9955;stroke-width:0.080349"
       id="path42" />
    <path
       d="m 39.233998,27.489394 a 8.7916341,13.378425 0 0 0 -8.79167,13.378558 8.7916341,13.378425 0 0 0 8.79167,13.378353 8.7916341,13.378425 0 0 0 8.791666,-13.378353 8.7916341,13.378425 0 0 0 -8.791666,-13.378558 z"
       style="fill:#ff9955;stroke-width:0.080349"
       id="path43" />
    <path
       d="m 39.233998,32.781061 a 8.7916341,13.378425 0 0 0 -8.79167,13.378558 8.7916341,13.378425 0 0 0 8.79167,13.378353 8.7916341,13.378425 0 0 0 8.791666,-13.378353 8.7916341,13.378425 0 0 0 -8.791666,-13.378558 z"
       style="fill:#ff9955;stroke-width:0.080349"
       id="path44" />
    <path
       d="m 39.233998,38.072728 a 8.7916341,13.378425 0 0 0 -8.79167,13.378558 8.7916341,13.378425 0 0 0 8.79167,13.378353 8.7916341,13.378425 0 0 0 8.791666,-13.378353 8.7916341,13.378425 0 0 0 -8.791666,-13.378558 z"
       style="fill:#ff9955;stroke-width:0.080349"
       id="path45" />
    <path
       d="m 39.233998,43.364395 a 8.7916341,13.378425 0 0 0 -8.79167,13.378558 8.7916341,13.378425 0 0 0 8.79167,13.378353 8.7916341,13.378425 0 0 0 8.791666,-13.378353 8.7916341,13.378425 0 0 0 -8.791666,-13.378558 z"
       style="fill:#ff9955;stroke-width:0.080349"
       id="path46" />
    <path
       d="M 39.233998,48.656062 A 8.7916341,13.378425 0 0 0 30.442328,62.03462 8.7916341,13.378425 0 0 0 39.233998,75.412973 8.7916341,13.378425 0 0 0 48.025664,62.03462 8.7916341,13.378425 0 0 0 39.233998,48.656062 Z"
       style="fill:#ff9955;stroke-width:0.080349"
       id="path47" />
    <path
       d="m 39.233998,53.947729 a 8.7916341,13.378425 0 0 0 -8.79167,13.378558 8.7916341,13.378425 0 0 0 8.79167,13.378353 8.7916341,13.378425 0 0 0 8.791666,-13.378353 8.7916341,13.378425 0 0 0 -8.791666,-13.378558 z"
       style="fill:#ff9955;stroke-width:0.080349"
       id="path48" />
  </g>
</svg>
